<svg width="250" height="80" viewBox="0 0 250 80" fill="none" xmlns="http://www.w3.org/2000/svg">
<g clip-path="url(#clip0_14_414)">
<path d="M38.8323 12.1796C47.3031 11.8258 60.6857 2.25194 60.6857 2.25194C73.652 -5.3572 75.4794 8.75384 75.4794 8.75384C76.9488 22.3446 70.963 36.2933 70.963 36.2933C73.4481 20.5172 72.1494 13.1287 72.1494 13.1287C70.3428 -1.11556 59.6159 8.81628 59.6159 8.81628C37.596 26.1325 24.2717 5.80259 24.2717 5.80259C30.0868 12.2462 38.8406 12.1838 38.8406 12.1838L38.8323 12.1796Z" fill="#B98062"/>
<path d="M70.6716 16.875C70.759 4.2458 64.6608 8.24601 64.6608 8.24601C61.2725 10.0442 57.2349 12.8748 57.2349 12.8748C70.5425 4.87019 70.6757 16.875 70.6757 16.875H70.6716Z" fill="#B98062"/>
<path d="M47.5987 17.3328C47.5987 17.3328 36.2225 20.2924 23.2353 7.58C23.2353 7.58 13.9945 -5.20735 4.06678 3.50486C4.06678 3.50486 -3.5715 10.219 2.08124 36.3557C2.08124 36.3557 4.75359 44.5101 11.0182 44.6683L31.8684 45.6257L12.3919 40.1103C12.3919 40.1103 7.43011 38.8282 6.74329 34.5949C6.74329 34.5949 2.77222 14.3733 7.2761 7.58C7.2761 7.58 10.3314 3.42577 16.0591 7.1013C16.0591 7.1013 35.2984 24.1261 47.5987 17.3328Z" fill="#624231"/>
<path d="M3.13452 43.3113C3.13452 43.3113 5.09924 51.2118 13.3869 51.0203C13.3869 51.0203 25.7829 50.0546 31.3691 48.0649C31.3691 48.0649 9.94861 47.3573 7.80074 46.2043C7.80074 46.2043 4.17932 44.2146 3.13452 43.3113Z" fill="#B98062"/>
<path d="M5.43628 51.9985C5.43628 51.9985 8.22518 65.8432 30.936 51.4657C30.936 51.4657 14.0694 56.8021 5.43628 51.9985Z" fill="#B98062"/>
<path d="M8.08789 59.7534C8.08789 59.7534 14.5482 73.7021 30.8321 55.6616C30.8321 55.6616 16.9624 63.7036 8.08789 59.7534Z" fill="#B98062"/>
<path d="M11.3181 67.1585C20.8379 79.5421 29.9497 60.9314 29.9497 60.9314C19.9554 70.7175 11.3181 67.1585 11.3181 67.1585Z" fill="#B98062"/>
<path d="M15.7009 74.3806C15.7009 74.3806 21.4119 84.1334 28.1136 71.9621C28.1136 71.9621 36.2056 54.2047 41.9833 62.7129C41.9833 62.7129 38.2786 53.4596 29.5039 67.2293C29.5039 67.2293 24.2008 75.9831 15.7009 74.3806Z" fill="#B98062"/>
<path d="M51.6157 77.5524L52.4566 77.7772C52.2817 78.5015 51.9654 79.0509 51.5075 79.4339C51.0496 79.8127 50.4918 80.0042 49.83 80.0042C49.1682 80.0042 48.5896 79.8585 48.1608 79.5671C47.7321 79.2757 47.4074 78.8511 47.1826 78.2975C46.9578 77.7439 46.8455 77.1487 46.8455 76.5118C46.8455 75.8208 46.9703 75.2131 47.2242 74.6969C47.4782 74.1808 47.8361 73.7895 48.3024 73.5189C48.7686 73.2525 49.2806 73.1193 49.8383 73.1193C50.471 73.1193 51.008 73.29 51.4409 73.6271C51.8738 73.9643 52.1735 74.443 52.3442 75.0591L51.52 75.263C51.3743 74.7802 51.1579 74.4264 50.879 74.2057C50.6001 73.9851 50.2463 73.8727 49.8217 73.8727C49.3347 73.8727 48.9267 73.9935 48.5979 74.239C48.269 74.4846 48.0401 74.8135 47.9069 75.2256C47.7737 75.6377 47.7071 76.0664 47.7071 76.5035C47.7071 77.0696 47.7862 77.5649 47.9444 77.9853C48.1025 78.4058 48.344 78.7221 48.677 78.9302C49.01 79.1384 49.368 79.2424 49.7551 79.2424C50.2254 79.2424 50.6251 79.1009 50.9497 78.8137C51.2744 78.5306 51.495 78.106 51.6116 77.5483L51.6157 77.5524Z" fill="#624231"/>
<path d="M53.2307 76.645C53.2307 75.5419 53.5138 74.6761 54.0799 74.0517C54.646 73.4273 55.3744 73.1151 56.2694 73.1151C56.8563 73.1151 57.3808 73.2608 57.8512 73.5564C58.3215 73.8519 58.6795 74.2598 58.9251 74.7843C59.1707 75.3088 59.2956 75.9041 59.2956 76.5701C59.2956 77.2361 59.1665 77.848 58.9043 78.3808C58.6462 78.9136 58.2757 79.3173 57.8012 79.5921C57.3267 79.8668 56.8105 80.0042 56.2611 80.0042C55.6658 80.0042 55.1288 79.8543 54.6585 79.5504C54.1881 79.2466 53.8301 78.8345 53.5887 78.31C53.3473 77.7855 53.2266 77.2319 53.2266 76.6491L53.2307 76.645ZM54.0965 76.6575C54.0965 77.4608 54.3005 78.0936 54.7126 78.5514C55.1247 79.0135 55.6408 79.2424 56.2611 79.2424C56.8813 79.2424 57.4141 79.0093 57.822 78.5431C58.2299 78.0769 58.4339 77.4151 58.4339 76.5576C58.4339 76.0164 58.3465 75.5419 58.1717 75.1381C57.9968 74.7344 57.7429 74.4222 57.4058 74.1974C57.0686 73.9726 56.694 73.8644 56.2735 73.8644C55.6783 73.8644 55.1663 74.0767 54.7417 74.5054C54.313 74.9342 54.1007 75.6501 54.1007 76.6491L54.0965 76.6575Z" fill="#624231"/>
<path d="M60.3528 79.8834V73.2275H61.6182L63.1209 77.9395C63.2582 78.3766 63.3623 78.7054 63.4247 78.9261C63.4955 78.6846 63.6079 78.3267 63.7619 77.8604L65.2812 73.2317H66.4093V79.8876H65.6018V74.3181L63.7577 79.8876H63.0002L61.1645 74.2224V79.8876H60.3569L60.3528 79.8834Z" fill="#624231"/>
<path d="M67.7581 79.8834V73.2275H70.1515C70.5719 73.2275 70.8925 73.2483 71.1172 73.29C71.4294 73.3441 71.6917 73.4482 71.8998 73.6022C72.1121 73.7562 72.2786 73.9685 72.4076 74.2432C72.5367 74.5179 72.5991 74.8218 72.5991 75.1506C72.5991 75.7167 72.4284 76.1954 72.083 76.5867C71.7416 76.978 71.1214 77.1736 70.2223 77.1736H68.5947V79.8793H67.7539L67.7581 79.8834ZM68.5989 76.3952H70.2389C70.7801 76.3952 71.1672 76.2912 71.3961 76.0789C71.6251 75.8666 71.7375 75.5669 71.7375 75.1839C71.7375 74.905 71.6709 74.6678 71.5377 74.468C71.4045 74.2682 71.2255 74.1391 71.009 74.0767C70.8675 74.0392 70.6053 74.0184 70.2265 74.0184H68.6031V76.3952H68.5989Z" fill="#624231"/>
<path d="M73.6357 79.8834V73.2275H74.4766V79.0967H77.5985V79.8834H73.6357Z" fill="#624231"/>
<path d="M78.6138 79.8834V73.2275H83.2009V74.0143H79.4546V76.0539H82.9636V76.8365H79.4546V79.1009H83.3466V79.8876H78.6138V79.8834Z" fill="#624231"/>
<path d="M86.1191 79.8834V74.0143H84.0295V73.2275H89.0579V74.0143H86.96V79.8834H86.1191Z" fill="#624231"/>
<path d="M89.936 79.8834V73.2275H94.5232V74.0143H90.7769V76.0539H94.2859V76.8365H90.7769V79.1009H94.6688V79.8876H89.936V79.8834Z" fill="#624231"/>
<path d="M98.2906 79.8834V73.2275H100.476C100.971 73.2275 101.346 73.2608 101.604 73.3233C101.966 73.4107 102.278 73.5689 102.532 73.7978C102.865 74.0933 103.115 74.4721 103.281 74.9342C103.448 75.3962 103.531 75.9249 103.531 76.5159C103.531 77.0196 103.473 77.4692 103.361 77.8604C103.248 78.2517 103.102 78.5722 102.928 78.8303C102.753 79.0842 102.557 79.2882 102.349 79.4339C102.141 79.5796 101.887 79.692 101.591 79.7669C101.296 79.8418 100.955 79.8793 100.572 79.8793H98.2822L98.2906 79.8834ZM99.1272 79.1009H100.48C100.896 79.1009 101.225 79.0593 101.462 78.9802C101.7 78.8969 101.891 78.7845 102.033 78.6347C102.232 78.4266 102.387 78.1435 102.499 77.7938C102.611 77.44 102.665 77.0154 102.665 76.5118C102.665 75.8166 102.557 75.2797 102.341 74.905C102.124 74.5304 101.858 74.2807 101.546 74.1516C101.321 74.06 100.959 74.0143 100.459 74.0143H99.1272V79.1009Z" fill="#624231"/>
<path d="M104.705 79.8834V73.2275H109.292V74.0143H105.545V76.0539H109.054V76.8365H105.545V79.1009H109.437V79.8876H104.705V79.8834Z" fill="#624231"/>
<path d="M110.59 79.8834V73.2275H111.452L114.782 78.4515V73.2275H115.585V79.8834H114.724L111.394 74.6553V79.8834H110.59Z" fill="#624231"/>
<path d="M118.608 79.8834V74.0143H116.518V73.2275H121.546V74.0143H119.448V79.8834H118.608Z" fill="#624231"/>
<path d="M121.055 79.8834L123.49 73.2275H124.394L126.991 79.8834H126.034L125.293 77.8688H122.641L121.946 79.8834H121.055ZM122.883 77.1528H125.03L124.369 75.3088C124.165 74.751 124.015 74.289 123.919 73.9268C123.84 74.3556 123.723 74.776 123.578 75.1964L122.883 77.1487V77.1528Z" fill="#624231"/>
<path d="M127.624 79.8834V73.2275H128.465V79.0967H131.587V79.8834H127.624Z" fill="#624231"/>
<path d="M133.535 79.8834L135.97 73.2275H136.873L139.47 79.8834H138.513L137.772 77.8688H135.121L134.425 79.8834H133.535ZM135.366 77.1528H137.518L136.856 75.3088C136.652 74.751 136.503 74.289 136.407 73.9268C136.328 74.3556 136.211 74.776 136.066 75.1964L135.37 77.1487L135.366 77.1528Z" fill="#624231"/>
<path d="M140.132 79.8834V73.2275H140.994L144.324 78.4515V73.2275H145.127V79.8834H144.266L140.936 74.6553V79.8834H140.132Z" fill="#624231"/>
<path d="M146.538 79.8834V73.2275H148.724C149.215 73.2275 149.594 73.2608 149.852 73.3233C150.214 73.4107 150.526 73.5689 150.78 73.7978C151.113 74.0933 151.363 74.4721 151.529 74.9342C151.696 75.3962 151.779 75.9249 151.779 76.5159C151.779 77.0196 151.725 77.4692 151.608 77.8604C151.496 78.2517 151.35 78.5722 151.175 78.8303C151.001 79.0842 150.809 79.2882 150.597 79.4339C150.389 79.5796 150.135 79.692 149.839 79.7669C149.544 79.8418 149.202 79.8793 148.819 79.8793H146.53L146.538 79.8834ZM147.379 79.1009H148.732C149.148 79.1009 149.477 79.0593 149.714 78.9802C149.952 78.8969 150.143 78.7845 150.285 78.6347C150.484 78.4266 150.638 78.1435 150.751 77.7938C150.863 77.44 150.917 77.0154 150.917 76.5118C150.917 75.8166 150.809 75.2797 150.589 74.905C150.372 74.5304 150.106 74.2807 149.793 74.1516C149.569 74.06 149.207 74.0143 148.707 74.0143H147.375V79.1009H147.379Z" fill="#624231"/>
<path d="M155.375 79.8834V73.2275H156.637L158.139 77.9395C158.277 78.3766 158.381 78.7054 158.443 78.9261C158.514 78.6846 158.626 78.3267 158.78 77.8604L160.3 73.2317H161.428V79.8876H160.62V74.3181L158.776 79.8876H158.019L156.183 74.2224V79.8876H155.375V79.8834Z" fill="#624231"/>
<path d="M162.085 79.8834L164.521 73.2275H165.424L168.021 79.8834H167.064L166.323 77.8688H163.671L162.976 79.8834H162.085ZM163.913 77.1528H166.065L165.403 75.3088C165.199 74.751 165.049 74.289 164.953 73.9268C164.874 74.3556 164.758 74.776 164.612 75.1964L163.917 77.1487L163.913 77.1528Z" fill="#624231"/>
<path d="M168.046 79.8834L170.498 76.416L168.334 73.2275H169.333L170.481 74.9342C170.723 75.288 170.889 75.5627 170.993 75.75C171.135 75.5086 171.302 75.2547 171.497 74.9925L172.775 73.2275H173.687L171.46 76.3661L173.861 79.8834H172.825L171.231 77.5108C171.143 77.3734 171.048 77.2277 170.952 77.0654C170.81 77.3068 170.71 77.4733 170.648 77.5649L169.054 79.8834H168.046Z" fill="#624231"/>
<path d="M174.744 79.8834V73.2275H175.584V79.8834H174.744Z" fill="#624231"/>
<path d="M177.025 79.8834V73.2275H177.865V79.0967H180.987V79.8834H177.025Z" fill="#624231"/>
<path d="M181.953 79.8834V73.2275H182.794V79.0967H185.916V79.8834H181.953Z" fill="#624231"/>
<path d="M186.661 76.645C186.661 75.5419 186.944 74.6761 187.51 74.0517C188.076 73.4273 188.805 73.1151 189.7 73.1151C190.287 73.1151 190.811 73.2608 191.282 73.5564C191.752 73.8519 192.11 74.2598 192.355 74.7843C192.601 75.3088 192.726 75.9041 192.726 76.5701C192.726 77.2361 192.597 77.848 192.339 78.3808C192.081 78.9136 191.71 79.3173 191.236 79.5921C190.761 79.8668 190.245 80.0042 189.696 80.0042C189.1 80.0042 188.563 79.8543 188.093 79.5504C187.623 79.2466 187.269 78.8345 187.023 78.31C186.782 77.7855 186.661 77.2319 186.661 76.6491V76.645ZM187.527 76.6575C187.527 77.4608 187.731 78.0936 188.143 78.5514C188.555 79.0135 189.071 79.2424 189.687 79.2424C190.303 79.2424 190.84 79.0093 191.248 78.5431C191.656 78.0769 191.86 77.4151 191.86 76.5576C191.86 76.0164 191.773 75.5419 191.598 75.1381C191.423 74.7344 191.169 74.4222 190.832 74.1974C190.495 73.9726 190.12 73.8644 189.7 73.8644C189.105 73.8644 188.593 74.0767 188.168 74.5054C187.739 74.9342 187.527 75.6501 187.527 76.6491V76.6575Z" fill="#624231"/>
<path d="M193.85 79.8834V73.2275H198.129V74.0143H194.69V76.0747H197.667V76.8614H194.69V79.8834H193.85Z" fill="#624231"/>
<path d="M198.033 79.8834L200.468 73.2275H201.372L203.969 79.8834H203.012L202.271 77.8688H199.619L198.924 79.8834H198.033ZM199.865 77.1528H202.017L201.355 75.3088C201.151 74.751 201.001 74.289 200.905 73.9268C200.826 74.3556 200.71 74.776 200.564 75.1964L199.869 77.1487L199.865 77.1528Z" fill="#624231"/>
<path d="M209.164 77.5524L210.005 77.7772C209.83 78.5015 209.513 79.0509 209.056 79.4339C208.598 79.8127 208.04 80.0042 207.378 80.0042C206.716 80.0042 206.138 79.8585 205.709 79.5671C205.28 79.2757 204.955 78.8511 204.731 78.2975C204.506 77.7439 204.398 77.1487 204.398 76.5118C204.398 75.8208 204.523 75.2131 204.776 74.6969C205.03 74.1808 205.388 73.7895 205.855 73.5189C206.321 73.2525 206.833 73.1193 207.391 73.1193C208.023 73.1193 208.56 73.29 208.993 73.6271C209.426 73.9643 209.726 74.443 209.896 75.0591L209.068 75.263C208.922 74.7802 208.706 74.4264 208.427 74.2057C208.148 73.9851 207.794 73.8727 207.37 73.8727C206.883 73.8727 206.475 73.9935 206.146 74.239C205.817 74.4846 205.588 74.8135 205.455 75.2256C205.322 75.6377 205.255 76.0664 205.255 76.5035C205.255 77.0696 205.334 77.5649 205.492 77.9853C205.651 78.4058 205.892 78.7221 206.225 78.9302C206.558 79.1384 206.916 79.2424 207.303 79.2424C207.774 79.2424 208.169 79.1009 208.498 78.8137C208.822 78.5306 209.043 78.106 209.16 77.5483L209.164 77.5524Z" fill="#624231"/>
<path d="M211.183 79.8834V73.2275H212.024V79.8834H211.183Z" fill="#624231"/>
<path d="M212.802 79.8834L215.237 73.2275H216.141L218.738 79.8834H217.781L217.04 77.8688H214.388L213.693 79.8834H212.802ZM214.634 77.1528H216.786L216.124 75.3088C215.92 74.751 215.77 74.289 215.674 73.9268C215.595 74.3556 215.479 74.776 215.333 75.1964L214.638 77.1487L214.634 77.1528Z" fill="#624231"/>
<path d="M219.375 79.8834V73.2275H220.216V79.0967H223.337V79.8834H219.375Z" fill="#624231"/>
<path d="M230.997 77.5524L231.837 77.7772C231.663 78.5015 231.346 79.0509 230.888 79.4339C230.43 79.8127 229.873 80.0042 229.211 80.0042C228.549 80.0042 227.97 79.8585 227.542 79.5671C227.113 79.2757 226.788 78.8511 226.563 78.2975C226.339 77.7439 226.23 77.1487 226.23 76.5118C226.23 75.8208 226.355 75.2131 226.609 74.6969C226.863 74.1808 227.221 73.7895 227.687 73.5189C228.154 73.2525 228.666 73.1193 229.223 73.1193C229.856 73.1193 230.393 73.29 230.826 73.6271C231.259 73.9643 231.559 74.443 231.729 75.0591L230.901 75.263C230.755 74.7802 230.539 74.4264 230.26 74.2057C229.981 73.9851 229.627 73.8727 229.203 73.8727C228.716 73.8727 228.308 73.9935 227.979 74.239C227.65 74.4846 227.421 74.8135 227.288 75.2256C227.155 75.6377 227.088 76.0664 227.088 76.5035C227.088 77.0696 227.167 77.5649 227.325 77.9853C227.483 78.4058 227.725 78.7221 228.058 78.9302C228.391 79.1384 228.749 79.2424 229.136 79.2424C229.606 79.2424 230.002 79.1009 230.331 78.8137C230.655 78.5306 230.876 78.106 230.992 77.5483L230.997 77.5524Z" fill="#624231"/>
<path d="M232.171 79.8834L234.606 73.2275H235.509L238.106 79.8834H237.149L236.408 77.8688H233.757L233.061 79.8834H232.171ZM234.002 77.1528H236.154L235.492 75.3088C235.288 74.751 235.139 74.289 235.043 73.9268C234.964 74.3556 234.847 74.776 234.701 75.1964L234.006 77.1487L234.002 77.1528Z" fill="#624231"/>
<path d="M238.789 79.8834V73.2275H241.603C242.169 73.2275 242.598 73.2858 242.893 73.4065C243.189 73.5272 243.422 73.7354 243.597 74.0392C243.771 74.3431 243.859 74.6761 243.859 75.0424C243.859 75.5128 243.713 75.9124 243.422 76.2371C243.13 76.5617 242.681 76.7657 242.073 76.8531C242.294 76.9655 242.464 77.0737 242.581 77.1861C242.826 77.4234 243.06 77.7189 243.276 78.0727L244.379 79.8834H243.322L242.481 78.4973C242.235 78.0977 242.036 77.7938 241.873 77.5816C241.715 77.3693 241.574 77.2194 241.449 77.1362C241.324 77.0529 241.195 76.9946 241.066 76.9613C240.97 76.9405 240.816 76.928 240.6 76.928H239.625V79.8834H238.785H238.789ZM239.63 76.1663H241.432C241.815 76.1663 242.115 76.1247 242.331 76.0414C242.548 75.9582 242.71 75.825 242.822 75.6418C242.935 75.4587 242.993 75.2589 242.993 75.0466C242.993 74.7302 242.885 74.4721 242.664 74.2723C242.448 74.0684 242.102 73.9685 241.632 73.9685H239.625V76.1705L239.63 76.1663Z" fill="#624231"/>
<path d="M245.195 79.8834V73.2275H249.782V74.0143H246.036V76.0539H249.545V76.8365H246.036V79.1009H249.928V79.8876H245.195V79.8834Z" fill="#624231"/>
<path d="M238.306 52.19V44.1896H241.282V52.19H249.283V55.1662H241.282V63.1667H238.306V55.1662H230.306V52.19H238.306Z" fill="#624231"/>
<path d="M55.5367 66.2386H53.6386C49.7799 66.2386 47.3198 64.7068 47.3198 61.1811V44.0522C48.4187 43.6193 51.2118 43.1864 52.9393 43.1864H55.2994C60.5234 43.1864 66.0097 46.6788 66.0097 54.2963C66.0097 61.1811 61.485 66.2386 55.5325 66.2386H55.5367ZM54.6043 47.0118H53.6053C53.0392 47.0118 51.8737 47.2449 51.8737 47.2449V60.3195C51.8737 61.6515 52.4731 62.2467 54.1672 62.2467H54.9331C58.6919 62.2467 61.3518 59.054 61.3518 54.929C61.3518 49.8382 58.5254 47.0118 54.6001 47.0118H54.6043Z" fill="#624231"/>
<path d="M85.1411 63.3789C85.1078 65.2063 84.1754 66.2053 80.1835 66.2053H77.7567C72.1997 66.2053 69.2734 63.1458 69.2734 57.3224V53.0974C69.2734 50.9371 69.4399 48.5062 69.7063 46.6788C70.0727 43.9523 71.3381 43.253 73.1987 43.253H85.1078V44.7848C85.1078 46.3833 84.1421 47.1783 82.0483 47.1783H74.231C73.9979 48.8433 73.898 51.0703 73.898 52.5022H82.681V54.1339C82.681 55.6324 81.7486 56.2277 79.9212 56.2277H73.9022V57.5597C73.9022 61.5183 75.2009 62.2842 78.7266 62.2842H80.1918C81.8568 62.2842 83.551 62.151 85.1827 61.7847L85.1494 63.3831L85.1411 63.3789Z" fill="#624231"/>
<path d="M104.829 66.0388C103.069 66.0388 101.137 65.506 98.3109 60.0198L94.1526 51.9361C93.5198 50.6707 93.0203 49.809 92.6207 49.2762V66.0388H90.8225C89.4905 66.0388 88.0627 65.0398 88.0627 63.0459V43.253H90.323C93.3159 43.253 95.2473 44.8514 96.775 47.9109L100.767 55.8947C101.233 56.8271 101.766 58.1882 102.099 58.9541V43.253H104.126C105.292 43.253 106.619 44.4185 106.619 45.8796V66.0388H104.821H104.829Z" fill="#624231"/>
<path d="M124.29 47.2449H120.098V66.0388H118.266C116.668 66.0388 115.507 65.0065 115.507 62.9793V47.2449H108.955V45.7464C108.955 44.6475 109.854 43.253 111.715 43.253H127.016V44.6849C127.016 45.7838 125.784 47.2449 124.29 47.2449Z" fill="#624231"/>
<path d="M145.743 66.0388C143.85 66.0388 142.851 64.9399 142.684 63.8451C142.484 62.3466 142.284 61.1853 142.051 60.2196H132.969C132.502 62.1468 132.103 64.1115 131.77 66.0388H130.005C128.506 66.0388 127.911 65.2396 127.911 63.8451C127.911 60.5526 132.169 47.1492 135.662 43.2572H137.522C139.354 43.2572 140.582 44.2562 141.215 45.3509C143.275 49.0431 146.705 58.8542 147.6 66.0388H145.739H145.743ZM137.493 47.4447C136.161 49.8049 134.734 53.4304 133.968 56.594H141.019C140.253 53.4013 138.692 49.5759 137.493 47.4447Z" fill="#624231"/>
<path d="M156.887 66.4384C152.295 66.4384 149.935 64.6402 149.935 61.947V59.9199H150.035C151.567 61.2852 153.627 62.3799 156.387 62.3799C159.813 62.3799 160.912 61.2144 160.912 59.387C160.912 57.8219 160.312 57.1268 155.488 56.0945C151.629 55.262 149.436 53.3347 149.436 50.2419C149.436 46.4499 152.628 42.8576 157.985 42.8576C163.343 42.8576 164.837 45.1178 164.837 47.016V49.1097H164.704C163.305 47.6112 161.278 46.8828 158.785 46.8828C155.259 46.8828 153.96 48.0483 153.96 49.809C153.96 51.1743 155.026 52.0027 159.284 52.9018C163.443 53.7676 165.47 55.928 165.47 58.9874C165.47 63.4788 162.41 66.4384 156.887 66.4384Z" fill="#624231"/>
<path d="M177.703 66.4384C172.184 66.4384 168.621 62.7462 168.621 56.1611V43.2572H170.386C171.817 43.2572 173.212 44.2895 173.212 47.4489V55.8655C173.212 60.1238 174.644 62.1843 178.169 62.1843C181.395 62.1843 182.727 60.0572 182.727 56.032V43.2572H184.459C186.191 43.2572 187.319 44.5226 187.319 47.3157V55.7656C187.319 62.4507 184.226 66.4426 177.707 66.4426L177.703 66.4384Z" fill="#624231"/>
<path d="M206.213 66.2053C204.748 66.2053 203.486 65.6392 202.887 64.1781L201.189 60.0531C200.156 57.5597 199.195 57.3932 197.996 57.1934C196.997 57.0269 196.198 56.8937 195.736 56.8937V66.043H194.271C192.243 66.043 191.178 64.8109 191.178 62.9835V43.8899C192.143 43.5236 195.336 43.0574 197.03 43.0574H199.557C204.082 43.0574 207.041 45.7839 207.041 49.6092C207.041 52.702 205.01 55.262 202.35 55.6616C203.582 56.1611 204.61 57.5222 205.176 58.8543L207.008 63.1125C207.574 64.4446 208.14 65.0731 208.407 65.4727C207.874 66.0388 207.474 66.2053 206.213 66.2053ZM197.763 46.9785C197.33 46.9785 196.231 47.0784 195.736 47.2116V53.2307C196.735 53.4305 197.763 53.4305 198.995 53.4305C200.86 53.4305 202.421 52.3648 202.421 50.3377C202.421 47.5779 201.022 46.9785 199.028 46.9785H197.763Z" fill="#624231"/>
<path d="M226.934 63.3789C226.9 65.2063 225.968 66.2053 221.976 66.2053H219.549C213.997 66.2053 211.066 63.1458 211.066 57.3224V53.0974C211.066 50.9371 211.233 48.5062 211.499 46.6788C211.865 43.9523 213.131 43.253 214.991 43.253H226.9V44.7848C226.9 46.3833 225.935 47.1783 223.841 47.1783H216.024C215.791 48.8433 215.691 51.0703 215.691 52.5022H224.474V54.1339C224.474 55.6324 223.541 56.2277 221.714 56.2277H215.695V57.5597C215.695 61.5183 216.994 62.2842 220.519 62.2842H221.985C223.65 62.2842 225.344 62.151 226.975 61.7847L226.942 63.3831L226.934 63.3789Z" fill="#624231"/>
</g>
<defs>
<clipPath id="clip0_14_414">
<rect width="249.928" height="80" fill="white"/>
</clipPath>
</defs>
</svg>
