<svg width="16" height="15" viewBox="0 0 16 15" fill="none" xmlns="http://www.w3.org/2000/svg">
<path d="M7.69336 0.5C7.74798 0.500056 7.80015 0.513195 7.85742 0.545898C7.87956 0.558541 7.90759 0.581077 7.93457 0.646484L7.93652 0.650391L9.69629 4.82129L9.8125 5.09863L10.1133 5.125L14.6191 5.51855C14.7266 5.53591 14.7671 5.56434 14.7773 5.57324C14.794 5.58772 14.8103 5.60584 14.8262 5.62891L14.8711 5.71582C14.8792 5.73658 14.8843 5.75646 14.8857 5.77734L14.8789 5.8457C14.8711 5.87842 14.8521 5.92001 14.793 5.97168L11.3584 8.94531L11.1299 9.14258L11.1982 9.43652L12.2305 13.8535V13.8545L12.2344 13.8672C12.2522 13.9352 12.242 13.9642 12.2344 13.9805C12.2197 14.0117 12.2032 14.0379 12.1846 14.0605L12.1221 14.1191C12.0772 14.1512 12.0302 14.1685 11.9727 14.1738C11.9467 14.1762 11.9065 14.1731 11.8408 14.1357L7.95117 11.791L7.69336 11.6357L7.43457 11.791L3.54688 14.1348C3.48006 14.1731 3.43927 14.1763 3.41309 14.1738C3.35551 14.1685 3.3086 14.1513 3.26367 14.1191C3.24067 14.1026 3.21983 14.0832 3.20117 14.0605L3.15137 13.9805C3.14378 13.9641 3.13354 13.935 3.15137 13.8672L3.15527 13.8545L4.1875 9.43652L4.25684 9.14258L4.02832 8.94531L0.592773 5.97168C0.563571 5.94614 0.544316 5.923 0.53125 5.90234L0.506836 5.8457C0.500851 5.82083 0.498583 5.79851 0.5 5.77734L0.514648 5.71582C0.5422 5.64502 0.575847 5.6023 0.609375 5.57324C0.619856 5.56421 0.659782 5.53583 0.766602 5.51855L5.27344 5.125L5.57324 5.09863L5.69043 4.82129L7.4502 0.650391L7.45117 0.646484C7.47807 0.581263 7.50621 0.558563 7.52832 0.545898C7.58572 0.51312 7.63861 0.5 7.69336 0.5Z" fill="url(#paint0_linear_110_225)" stroke="url(#paint1_linear_110_225)" stroke-linecap="round"/>
<defs>
<linearGradient id="paint0_linear_110_225" x1="7.693" y1="0" x2="7.693" y2="14.6748" gradientUnits="userSpaceOnUse">
<stop stop-color="#F9C74F" stop-opacity="0.56"/>
<stop offset="1" stop-color="#F9B41C"/>
</linearGradient>
<linearGradient id="paint1_linear_110_225" x1="7.693" y1="0" x2="7.693" y2="14.6748" gradientUnits="userSpaceOnUse">
<stop offset="0.5" stop-color="#F9C74F" stop-opacity="0"/>
<stop offset="1" stop-color="#F9C74F"/>
</linearGradient>
</defs>
</svg>
