<svg width="16" height="17" viewBox="0 0 16 17" fill="none" xmlns="http://www.w3.org/2000/svg">
<path d="M11.4583 13.6377H9.58333C9.40625 13.6377 9.25785 13.5778 9.13813 13.4579C9.01826 13.3381 8.95833 13.1896 8.95833 13.0125C8.95833 12.8353 9.01826 12.6869 9.13813 12.5673C9.25785 12.4476 9.40625 12.3877 9.58333 12.3877H11.4583V10.5127C11.4583 10.3356 11.5183 10.1872 11.6381 10.0675C11.758 9.94764 11.9065 9.88771 12.0835 9.88771C12.2608 9.88771 12.4092 9.94764 12.5287 10.0675C12.6485 10.1872 12.7083 10.3356 12.7083 10.5127V12.3877H14.5833C14.7604 12.3877 14.9088 12.4476 15.0285 12.5675C15.1484 12.6874 15.2083 12.8358 15.2083 13.0129C15.2083 13.1901 15.1484 13.3385 15.0285 13.4581C14.9088 13.5778 14.7604 13.6377 14.5833 13.6377H12.7083V15.5127C12.7083 15.6898 12.6484 15.8382 12.5285 15.9579C12.4087 16.0778 12.2602 16.1377 12.0831 16.1377C11.9059 16.1377 11.7575 16.0778 11.6379 15.9579C11.5182 15.8382 11.4583 15.6898 11.4583 15.5127V13.6377ZM1.50646 14.2627C1.08549 14.2627 0.729167 14.1169 0.4375 13.8252C0.145833 13.5335 0 13.1772 0 12.7563V3.26917C0 2.84819 0.145833 2.49187 0.4375 2.20021C0.729167 1.90854 1.08549 1.76271 1.50646 1.76271H2.66021V0.640834C2.66021 0.459306 2.72181 0.307083 2.845 0.184166C2.96806 0.0613882 3.12056 0 3.3025 0C3.48444 0 3.63653 0.0613882 3.75875 0.184166C3.88111 0.307083 3.94229 0.459306 3.94229 0.640834V1.76271H8.58979V0.625C8.58979 0.447917 8.64972 0.299444 8.76958 0.179583C8.88931 0.059861 9.03778 0 9.215 0C9.39222 0 9.54062 0.059861 9.66021 0.179583C9.77993 0.299444 9.83979 0.447917 9.83979 0.625V1.76271H10.9935C11.4145 1.76271 11.7708 1.90854 12.0625 2.20021C12.3542 2.49187 12.5 2.84819 12.5 3.26917V7.51604C12.5 7.69299 12.4401 7.84139 12.3202 7.96125C12.2003 8.08097 12.0519 8.14083 11.8748 8.14083C11.6976 8.14083 11.5492 8.08097 11.4296 7.96125C11.3099 7.84139 11.25 7.69299 11.25 7.51604V6.6025H1.25V12.7563C1.25 12.8204 1.27674 12.8792 1.33021 12.9325C1.38354 12.986 1.44229 13.0127 1.50646 13.0127H6.57854C6.75562 13.0127 6.90403 13.0726 7.02375 13.1925C7.14361 13.3124 7.20354 13.4608 7.20354 13.6379C7.20354 13.8151 7.14361 13.9635 7.02375 14.0831C6.90403 14.2028 6.75562 14.2627 6.57854 14.2627H1.50646ZM1.25 5.3525H11.25V3.26917C11.25 3.205 11.2233 3.14625 11.1698 3.09292C11.1165 3.03944 11.0577 3.01271 10.9935 3.01271H1.50646C1.44229 3.01271 1.38354 3.03944 1.33021 3.09292C1.27674 3.14625 1.25 3.205 1.25 3.26917V5.3525Z" fill="white"/>
</svg>
