<svg width="20" height="20" viewBox="0 0 20 20" fill="none" xmlns="http://www.w3.org/2000/svg">
<mask id="mask0_133_24" style="mask-type:alpha" maskUnits="userSpaceOnUse" x="0" y="0" width="20" height="20">
<rect width="20" height="20" fill="#D9D9D9"/>
</mask>
<g mask="url(#mask0_133_24)">
<path d="M16.2003 17.0833C14.6299 17.0833 13.0522 16.7182 11.4672 15.9879C9.8823 15.2576 8.42612 14.2275 7.09862 12.8975C5.77126 11.5674 4.74244 10.1111 4.01216 8.52874C3.28189 6.94652 2.91675 5.3702 2.91675 3.79978C2.91675 3.54742 3.00008 3.33714 3.16675 3.16895C3.33341 3.00075 3.54175 2.91666 3.79175 2.91666H6.50967C6.72008 2.91666 6.90571 2.98534 7.06654 3.1227C7.22737 3.25992 7.32967 3.4295 7.37342 3.63145L7.85112 6.08332C7.88418 6.31082 7.87723 6.50631 7.83029 6.66978C7.78321 6.83325 7.69876 6.97055 7.57696 7.08166L5.65237 8.9552C5.9621 9.52242 6.31598 10.059 6.71404 10.565C7.11196 11.0708 7.54279 11.5539 8.00654 12.0144C8.46376 12.4717 8.94987 12.8964 9.46487 13.2885C9.97987 13.6806 10.536 14.0455 11.1332 14.3831L13.0032 12.4969C13.1336 12.3612 13.2915 12.266 13.477 12.2114C13.6622 12.157 13.8548 12.1437 14.0547 12.1714L16.3686 12.6427C16.579 12.6983 16.7508 12.8056 16.8838 12.9648C17.0169 13.1239 17.0834 13.3045 17.0834 13.5064V16.2083C17.0834 16.4583 16.9993 16.6667 16.8311 16.8333C16.6629 17 16.4527 17.0833 16.2003 17.0833ZM5.06091 7.77249L6.54821 6.34937C6.57487 6.32798 6.59223 6.2986 6.60029 6.26124C6.60835 6.22388 6.60703 6.18916 6.59633 6.15707L6.23404 4.29478C6.22335 4.25214 6.20467 4.22013 6.178 4.19874C6.15133 4.17735 6.11661 4.16666 6.07383 4.16666H4.29175C4.25966 4.16666 4.23293 4.17735 4.21154 4.19874C4.19029 4.22013 4.17966 4.24687 4.17966 4.27895C4.2223 4.84839 4.3155 5.42687 4.45925 6.01436C4.60286 6.602 4.80341 7.18805 5.06091 7.77249ZM12.3109 14.9744C12.8633 15.2319 13.4394 15.4287 14.0392 15.565C14.6392 15.7011 15.1999 15.782 15.7211 15.8077C15.7532 15.8077 15.7799 15.797 15.8013 15.7756C15.8227 15.7542 15.8334 15.7275 15.8334 15.6954V13.9423C15.8334 13.8995 15.8227 13.8648 15.8013 13.8381C15.7799 13.8114 15.7479 13.7928 15.7053 13.7821L13.9553 13.4262C13.9232 13.4155 13.8952 13.4142 13.8711 13.4223C13.8471 13.4303 13.8217 13.4477 13.7949 13.4744L12.3109 14.9744Z" fill="#624231"/>
</g>
</svg>
