<svg width="34" height="35" viewBox="0 0 34 35" fill="none" xmlns="http://www.w3.org/2000/svg">
<path d="M26.615 0C28.546 0.013 30.1953 0.700166 31.563 2.0615C32.931 3.42317 33.615 5.06933 33.615 7C33.615 7.341 33.5932 7.807 33.5495 8.398C33.5062 8.989 33.4345 9.67817 33.3345 10.4655L30.565 30.6155C30.437 31.6385 29.9775 32.4667 29.1865 33.1C28.3955 33.7333 27.4883 34.05 26.465 34.05C25.814 34.05 25.2243 33.893 24.696 33.579C24.1677 33.2647 23.719 32.8523 23.35 32.342L17.7115 24.4075C17.6062 24.2485 17.4722 24.128 17.3095 24.046C17.1465 23.964 16.9625 23.923 16.7575 23.923C16.5728 23.923 16.2548 24.1178 15.8035 24.5075L10.315 32.192C9.91267 32.7433 9.43067 33.1908 8.869 33.5345C8.30733 33.8782 7.701 34.05 7.05 34.05C6.02667 34.05 5.12783 33.725 4.3535 33.075C3.57917 32.425 3.128 31.5885 3 30.5655L0.2805 10.4655C0.1805 9.67817 0.108833 8.989 0.0654999 8.398C0.0218332 7.807 0 7.341 0 7C0 5.06933 0.684 3.42 2.052 2.052C3.41967 0.683999 5.069 0 7 0C8.08433 0 8.9785 0.158333 9.6825 0.475C10.3865 0.791667 11.0718 1.13333 11.7385 1.5C12.4052 1.86667 13.123 2.20833 13.892 2.525C14.6613 2.84167 15.6332 3 16.8075 3C17.9948 3 18.9762 2.84167 19.7515 2.525C20.5272 2.20833 21.2483 1.86667 21.915 1.5C22.5817 1.13333 23.2688 0.791667 23.9765 0.475C24.6845 0.158333 25.564 0 26.615 0ZM26.615 3C25.8483 3 25.1733 3.15833 24.59 3.475C24.0067 3.79167 23.3715 4.13333 22.6845 4.5C21.9972 4.86667 21.1997 5.20833 20.292 5.525C19.3843 5.84167 18.2228 6 16.8075 6C15.4178 6 14.2692 5.84167 13.3615 5.525C12.4538 5.20833 11.6563 4.86667 10.969 4.5C10.282 4.13333 9.64033 3.79167 9.044 3.475C8.448 3.15833 7.76667 3 7 3C5.9 3 4.95833 3.39167 4.175 4.175C3.39167 4.95833 3 5.9 3 7C3 7.26667 3.01667 7.65 3.05 8.15C3.08333 8.65 3.15 9.23333 3.25 9.9L6 30.15C6.03333 30.4167 6.15 30.625 6.35 30.775C6.55 30.925 6.78333 31 7.05 31C7.255 31 7.43383 30.9378 7.5865 30.8135C7.73883 30.6892 7.86767 30.541 7.973 30.369L13.3305 22.8155C13.7332 22.2512 14.237 21.7947 14.842 21.446C15.4473 21.0973 16.1025 20.923 16.8075 20.923C17.4998 20.923 18.1517 21.0973 18.763 21.446C19.3747 21.7947 19.8818 22.2512 20.2845 22.8155L25.723 30.519C25.828 30.6577 25.9402 30.7808 26.0595 30.8885C26.1785 30.9962 26.3303 31.05 26.515 31.05C26.7817 31.05 27.0233 30.975 27.24 30.825C27.4567 30.675 27.5817 30.4667 27.615 30.2L30.365 9.9C30.465 9.23333 30.5317 8.65 30.565 8.15C30.5983 7.65 30.615 7.26667 30.615 7C30.615 5.9 30.2233 4.95833 29.44 4.175C28.6567 3.39167 27.715 3 26.615 3Z" fill="url(#paint0_linear_1_290)"/>
<defs>
<linearGradient id="paint0_linear_1_290" x1="16.8075" y1="0" x2="16.8075" y2="34.05" gradientUnits="userSpaceOnUse">
<stop stop-color="#B98062"/>
<stop offset="1" stop-color="#624231"/>
</linearGradient>
</defs>
</svg>
