<svg width="24" height="24" viewBox="0 0 24 24" fill="none" xmlns="http://www.w3.org/2000/svg">
<path d="M15.097 3.66162C14.882 4.04333 14.689 4.4382 14.5135 4.84184C12.8462 4.59176 11.1483 4.59176 9.47668 4.84184C9.30557 4.4382 9.10813 4.04333 8.89316 3.66162C7.32684 3.92926 5.8 4.39871 4.35215 5.06121C1.48276 9.31265 0.706179 13.4544 1.09228 17.5391C2.77266 18.7807 4.65489 19.7284 6.65994 20.3339C7.11185 19.7284 7.51111 19.0835 7.85333 18.4122C7.20398 18.1709 6.57658 17.8682 5.9755 17.5172C6.13345 17.4031 6.28701 17.2846 6.43618 17.1706C9.9593 18.829 14.0396 18.829 17.5671 17.1706C17.7163 17.2934 17.8699 17.4119 18.0278 17.5172C17.4267 17.8725 16.7993 18.1709 16.1456 18.4166C16.4878 19.0879 16.8871 19.7328 17.339 20.3383C19.344 19.7328 21.2262 18.7895 22.9067 17.5479C23.3629 12.8094 22.1257 8.70279 19.6379 5.06561C18.1945 4.40311 16.6677 3.93364 15.1014 3.67039L15.097 3.66162ZM8.34472 15.0251C7.26103 15.0251 6.3616 14.0423 6.3616 12.827C6.3616 11.6117 7.22592 10.6245 8.34034 10.6245C9.45476 10.6245 10.341 11.6161 10.3235 12.827C10.3059 14.0379 9.45037 15.0251 8.34472 15.0251ZM15.6542 15.0251C14.5661 15.0251 13.6755 14.0423 13.6755 12.827C13.6755 11.6117 14.5398 10.6245 15.6542 10.6245C16.7686 10.6245 17.6505 11.6161 17.6329 12.827C17.6154 14.0379 16.7598 15.0251 15.6542 15.0251Z" fill="url(#paint0_linear_1_550)"/>
<defs>
<linearGradient id="paint0_linear_1_550" x1="12" y1="3.66162" x2="12" y2="20.3383" gradientUnits="userSpaceOnUse">
<stop stop-color="white"/>
<stop offset="1" stop-color="white" stop-opacity="0.56"/>
</linearGradient>
</defs>
</svg>
