<svg width="24" height="24" viewBox="0 0 24 24" fill="none" xmlns="http://www.w3.org/2000/svg">
<path fill-rule="evenodd" clip-rule="evenodd" d="M12.0009 6.53519C15.0187 6.53519 17.4648 8.98209 17.4648 12C17.4646 15.0176 15.0186 17.4639 12.0009 17.4639C8.98316 17.4639 6.53637 15.0175 6.53612 12C6.53612 8.98217 8.9831 6.5352 12.0009 6.53519ZM12.0009 7.82708C9.69639 7.82709 7.828 9.69546 7.828 12C7.82825 14.3041 9.69653 16.1729 12.0009 16.1729C14.3051 16.1729 16.1736 14.3041 16.1739 12C16.1739 9.69544 14.3052 7.82708 12.0009 7.82708Z" fill="url(#paint0_linear_1_544)"/>
<path d="M18.176 4.94418C18.6732 4.99469 19.0614 5.41542 19.0614 5.92583C19.061 6.46993 18.6193 6.91211 18.0751 6.91211C17.531 6.91198 17.0892 6.46985 17.0888 5.92583C17.0888 5.38148 17.5306 4.93968 18.0751 4.93955L18.176 4.94418Z" fill="url(#paint1_linear_1_544)"/>
<path fill-rule="evenodd" clip-rule="evenodd" d="M11.9991 1C15.087 1 15.467 1.01277 16.6721 1.0676C17.8475 1.12145 18.6336 1.30669 19.316 1.57139L19.5744 1.67789C20.1662 1.93772 20.6814 2.27922 21.2006 2.79845C21.7192 3.31673 22.0605 3.83286 22.3212 4.42465L22.4286 4.68395C22.6915 5.36446 22.8763 6.15052 22.9315 7.32514L22.9657 8.1299C22.9926 8.89024 23 9.68455 23 12C23 14.3164 22.9926 15.1097 22.9657 15.8701L22.9315 16.6739C22.8762 17.848 22.6916 18.6344 22.4286 19.3151C22.1889 19.9301 21.8827 20.4591 21.4127 20.9784L21.2006 21.2006C20.6822 21.7196 20.1665 22.062 19.5753 22.3221L19.317 22.4286C18.7211 22.6602 18.0439 22.8305 17.0962 22.9055L16.673 22.9324C15.4682 22.9872 15.0874 23 11.9991 23C8.91129 23 8.53021 22.9872 7.32514 22.9324C6.14989 22.8786 5.3639 22.6932 4.68303 22.4286C4.06857 22.1898 3.53999 21.883 3.02071 21.4127L2.79845 21.2006C2.2799 20.6823 1.93813 20.1661 1.67789 19.5744L1.57139 19.3151C1.30709 18.6349 1.12171 17.849 1.0676 16.6739C1.01299 15.4687 1 15.0881 1 12C1 8.91203 1.0137 8.52939 1.0676 7.32421C1.12052 6.14966 1.30532 5.36338 1.57047 4.68303C1.84443 3.98022 2.20662 3.39083 2.79938 2.79845C3.39189 2.20572 3.98108 1.84439 4.68395 1.57139C5.36438 1.30676 6.15038 1.12144 7.32607 1.0676L8.13083 1.03427C8.89099 1.00734 9.68435 1 11.9991 1ZM10.9795 2.28911C9.38586 2.29089 8.75547 2.29909 8.09379 2.32337L7.38533 2.35301C6.23437 2.40588 5.59097 2.5993 5.15163 2.77067C4.57249 2.99615 4.14844 3.27192 3.71249 3.70786C3.27679 4.14363 3.00039 4.56838 2.7753 5.14792C2.60501 5.58668 2.41117 6.23013 2.35856 7.3807C2.30366 8.58853 2.29281 8.95487 2.29281 11.9944C2.29281 15.0343 2.30364 15.4026 2.35856 16.611C2.411 17.7615 2.60496 18.4046 2.7753 18.8428C3.00086 19.4224 3.27679 19.8462 3.71249 20.2819C4.14843 20.7178 4.57317 20.9932 5.15255 21.2182C5.59148 21.3885 6.23429 21.5828 7.38533 21.6359L8.18917 21.6692C8.94452 21.6957 9.7211 21.7026 12.0009 21.7026C15.041 21.7026 15.4082 21.6908 16.6165 21.6359C17.7674 21.5833 18.4112 21.3897 18.8502 21.2182C19.4297 20.9931 19.8529 20.7174 20.2884 20.2819C20.7238 19.8467 20.9995 19.4234 21.2247 18.8437C21.3951 18.4054 21.5897 17.7626 21.6424 16.6119C21.6973 15.4036 21.709 15.0355 21.709 11.9972C21.709 8.95931 21.6973 8.59121 21.6424 7.38348C21.59 6.23237 21.3951 5.58905 21.2247 5.1507C20.9993 4.57168 20.7241 4.14738 20.2884 3.71157C19.8528 3.27566 19.4289 2.9995 18.8493 2.77437C18.4654 2.6253 17.9252 2.45831 17.0249 2.38357L16.6165 2.35764C15.4078 2.30271 15.0408 2.29188 12.0009 2.29188C11.7729 2.29188 11.5592 2.29192 11.3592 2.29188V2.28818L10.9795 2.28911Z" fill="url(#paint2_linear_1_544)"/>
<defs>
<linearGradient id="paint0_linear_1_544" x1="12" y1="1" x2="12" y2="23" gradientUnits="userSpaceOnUse">
<stop stop-color="white"/>
<stop offset="1" stop-color="white" stop-opacity="0.56"/>
</linearGradient>
<linearGradient id="paint1_linear_1_544" x1="12" y1="1" x2="12" y2="23" gradientUnits="userSpaceOnUse">
<stop stop-color="white"/>
<stop offset="1" stop-color="white" stop-opacity="0.56"/>
</linearGradient>
<linearGradient id="paint2_linear_1_544" x1="12" y1="1" x2="12" y2="23" gradientUnits="userSpaceOnUse">
<stop stop-color="white"/>
<stop offset="1" stop-color="white" stop-opacity="0.56"/>
</linearGradient>
</defs>
</svg>
